<?xml version="1.0" standalone="no"?><!DOCTYPE svg PUBLIC "-//W3C//DTD SVG 1.1//EN" "http://www.w3.org/Graphics/SVG/1.1/DTD/svg11.dtd"><svg t="1692708563701" class="icon" viewBox="0 0 1024 1024" version="1.1" xmlns="http://www.w3.org/2000/svg" p-id="6840" xmlns:xlink="http://www.w3.org/1999/xlink" width="16" height="16"><path d="M462.933333 539.733333h98.133334L512 384l-49.066667 155.733333zM853.333333 370.773333V256c0-46.933333-38.4-85.333333-85.333333-85.333333h-114.773333l-81.066667-81.066667c-33.28-33.28-87.466667-33.28-120.746667 0L370.773333 170.666667H256c-46.933333 0-85.333333 38.4-85.333333 85.333333v114.773333l-81.066667 81.066667c-33.28 33.28-33.28 87.466667 0 120.746667l81.066667 81.066666V768c0 46.933333 38.4 85.333333 85.333333 85.333333h114.773333l81.066667 81.066667c33.28 33.28 87.466667 33.28 120.746667 0l81.066666-81.066667H768c46.933333 0 85.333333-38.4 85.333333-85.333333v-114.773333l81.066667-81.066667c33.28-33.28 33.28-87.466667 0-120.746667L853.333333 370.773333z m-252.16 286.293334L580.266667 597.333333h-136.533334l-20.906666 59.733334c-5.546667 15.36-19.626667 25.6-35.84 25.6a37.888 37.888 0 0 1-35.84-50.773334l104.106666-292.693333c8.533333-24.32 31.146667-40.533333 56.746667-40.533333s48.213333 16.213333 57.173333 40.106666l104.106667 292.693334a37.888 37.888 0 0 1-35.84 50.773333 37.290667 37.290667 0 0 1-36.266667-25.173333z" p-id="6841" fill="#515151"></path></svg>