<?xml version="1.0" standalone="no"?><!DOCTYPE svg PUBLIC "-//W3C//DTD SVG 1.1//EN" "http://www.w3.org/Graphics/SVG/1.1/DTD/svg11.dtd"><svg t="1695355371817" class="icon" viewBox="0 0 1024 1024" version="1.1" xmlns="http://www.w3.org/2000/svg" p-id="36604" width="16" height="16" xmlns:xlink="http://www.w3.org/1999/xlink"><path d="M892.928 128q28.672 0 48.64 19.968t19.968 48.64l0 52.224q0 28.672-19.968 48.64t-48.64 19.968l-759.808 0q-28.672 0-48.64-19.968t-19.968-48.64l0-52.224q0-28.672 19.968-48.64t48.64-19.968l759.808 0zM892.928 448.512q28.672 0 48.64 19.968t19.968 48.64l0 52.224q0 28.672-19.968 48.64t-48.64 19.968l-759.808 0q-28.672 0-48.64-19.968t-19.968-48.64l0-52.224q0-28.672 19.968-48.64t48.64-19.968l759.808 0zM892.928 769.024q28.672 0 48.64 19.968t19.968 48.64l0 52.224q0 28.672-19.968 48.64t-48.64 19.968l-759.808 0q-28.672 0-48.64-19.968t-19.968-48.64l0-52.224q0-28.672 19.968-48.64t48.64-19.968l759.808 0z" p-id="36605" fill="#515151"></path></svg>