<svg xmlns="http://www.w3.org/2000/svg" width="80" viewBox="0 0 60 60" height="80" version="1.0"><defs><clipPath id="a"><path d="M10.5 11H51v39H10.5Zm0 0"/></clipPath></defs><path fill="#e7f8ff" d="M20 0h20a20.393 20.393 0 0 1 3.902.383c.641.129 1.278.289 1.903.476a20.386 20.386 0 0 1 3.625 1.504c.574.309 1.136.645 1.683 1.008a20.76 20.76 0 0 1 1.575 1.168c.507.418.992.856 1.453 1.32.464.461.902.946 1.32 1.454a20.76 20.76 0 0 1 1.168 1.574 19.934 19.934 0 0 1 1.848 3.46c.25.606.472 1.22.664 1.848.187.625.347 1.262.476 1.903A20.393 20.393 0 0 1 60 20v20a20.393 20.393 0 0 1-.383 3.902c-.129.641-.289 1.278-.476 1.903a20.386 20.386 0 0 1-1.504 3.625 21.062 21.062 0 0 1-1.008 1.683 20.76 20.76 0 0 1-1.168 1.575c-.418.507-.856.992-1.32 1.453-.461.464-.946.902-1.453 1.32a20.76 20.76 0 0 1-1.575 1.168 19.934 19.934 0 0 1-3.46 1.848c-.606.25-1.22.472-1.848.664-.625.187-1.262.347-1.903.476A20.393 20.393 0 0 1 40 60H20a20.393 20.393 0 0 1-3.902-.383c-.641-.129-1.278-.289-1.903-.476a20.386 20.386 0 0 1-3.625-1.504 21.062 21.062 0 0 1-1.683-1.008 20.76 20.76 0 0 1-1.575-1.168 19.418 19.418 0 0 1-1.453-1.32c-.464-.461-.902-.946-1.32-1.453a20.76 20.76 0 0 1-1.168-1.575 19.934 19.934 0 0 1-1.848-3.46 20.386 20.386 0 0 1-.664-1.848 21.155 21.155 0 0 1-.476-1.903A20.393 20.393 0 0 1 0 40V20a20.393 20.393 0 0 1 .383-3.902c.129-.641.289-1.278.476-1.903a20.386 20.386 0 0 1 1.504-3.625c.309-.574.645-1.136 1.008-1.683A20.76 20.76 0 0 1 4.54 7.312c.418-.507.856-.992 1.32-1.453.461-.464.946-.902 1.454-1.32a20.76 20.76 0 0 1 1.574-1.168 19.934 19.934 0 0 1 3.46-1.848c.606-.25 1.22-.472 1.848-.664a21.155 21.155 0 0 1 1.903-.476A20.393 20.393 0 0 1 20 0Zm0 0"/><g clip-path="url(#a)"><path fill="#27b7cc" d="m10.602 28.633.011-.387c.356-8.8 8.293-15.137 16.301-16.547C37.906 9.762 52.5 17.008 49.945 29.926c-1.367 6.918-6.28 13.187-13.238 15.11-1.918.526-4.086.87-6.078.87-4.172 0-7.461-2.164-11.297.598-1.121.809-2.281 3.644-4.059 3.02-1.3-.458-1.574-3.087-1.66-4.184-.453-5.625-3.11-11.04-3.011-16.707Zm0 0"/></g><path fill="#fff" d="M37.262 28.719a2.553 2.553 0 0 0 .754 1.812 2.567 2.567 0 0 0 4.379-1.812c0-.34-.067-.664-.196-.977a2.517 2.517 0 0 0-.558-.832 2.506 2.506 0 0 0-.832-.555 2.553 2.553 0 0 0-1.961 0 2.506 2.506 0 0 0-.832.555c-.243.238-.43.516-.559.832a2.534 2.534 0 0 0-.195.977ZM28.2 28.719a2.553 2.553 0 0 0 .753 1.812 2.567 2.567 0 0 0 4.379-1.812c0-.34-.066-.664-.195-.977a2.459 2.459 0 0 0-.559-.832 2.506 2.506 0 0 0-.832-.555 2.553 2.553 0 0 0-1.96 0 2.506 2.506 0 0 0-.833.555 2.517 2.517 0 0 0-.558.832 2.534 2.534 0 0 0-.196.977ZM19.617 28.719a2.553 2.553 0 0 0 .754 1.812 2.567 2.567 0 0 0 4.379-1.812c0-.34-.066-.664-.195-.977A2.506 2.506 0 0 0 24 26.91a2.563 2.563 0 0 0-.836-.555 2.553 2.553 0 0 0-1.96 0 2.506 2.506 0 0 0-.833.555 2.517 2.517 0 0 0-.558.832 2.534 2.534 0 0 0-.196.977Zm0 0"/></svg>