<svg t="1695354757890" class="icon" viewBox="0 0 1024 1024" version="1.1" xmlns="http://www.w3.org/2000/svg" p-id="29853" width="16" height="16"><path d="M534.714 598.611c-6.271 6.271-14.495 9.399-22.714 9.386-8.22 0.013-16.443-3.115-22.714-9.386L73.389 182.714c-12.516-12.516-12.516-32.809 0-45.325 6.245-6.245 14.426-9.373 22.611-9.386V128h832v0.003c8.185 0.013 16.366 3.141 22.611 9.386 12.516 12.516 12.516 32.809 0 45.325L534.714 598.611zM96 416.003V416h146.675l246.611 246.611c6.271 6.271 14.495 9.399 22.714 9.386 8.219 0.013 16.443-3.115 22.714-9.386L781.325 416H928c17.673 0 32 14.327 32 32l-0.003 0.048c0.001 8.203-3.128 16.407-9.387 22.666L534.714 886.611c-6.271 6.271-14.495 9.399-22.714 9.386-8.22 0.013-16.443-3.115-22.714-9.386L73.389 470.714c-12.516-12.516-12.516-32.809 0-45.325 6.245-6.245 14.426-9.372 22.611-9.386z" p-id="29854" fill="#515151"></path></svg>