<?xml version="1.0" standalone="no"?><!DOCTYPE svg PUBLIC "-//W3C//DTD SVG 1.1//EN" "http://www.w3.org/Graphics/SVG/1.1/DTD/svg11.dtd"><svg t="1690819552742" class="icon" viewBox="0 0 1024 1024" version="1.1" xmlns="http://www.w3.org/2000/svg" p-id="69807" xmlns:xlink="http://www.w3.org/1999/xlink" width="16" height="16"><path d="M874.666667 554.666667H149.333333c-12.8 0-21.333333-8.533333-21.333333-21.333334v-42.666666c0-12.8 8.533333-21.333333 21.333333-21.333334h725.333334c12.8 0 21.333333 8.533333 21.333333 21.333334v42.666666c0 12.8-8.533333 21.333333-21.333333 21.333334zM810.666667 384H213.333333c-23.466667 0-42.666667-19.2-42.666666-42.666667V170.666667c0-23.466667 19.2-42.666667 42.666666-42.666667h597.333334c23.466667 0 42.666667 19.2 42.666666 42.666667v170.666666c0 23.466667-19.2 42.666667-42.666666 42.666667zM810.666667 896H213.333333c-23.466667 0-42.666667-19.2-42.666666-42.666667v-170.666666c0-23.466667 19.2-42.666667 42.666666-42.666667h597.333334c23.466667 0 42.666667 19.2 42.666666 42.666667v170.666666c0 23.466667-19.2 42.666667-42.666666 42.666667z" fill="#515151" p-id="69808"></path></svg>