<?xml version="1.0" standalone="no"?><!DOCTYPE svg PUBLIC "-//W3C//DTD SVG 1.1//EN" "http://www.w3.org/Graphics/SVG/1.1/DTD/svg11.dtd"><svg t="1690858681553" class="icon" viewBox="0 0 1024 1024" version="1.1" xmlns="http://www.w3.org/2000/svg" p-id="144794" xmlns:xlink="http://www.w3.org/1999/xlink" width="16" height="16"><path d="M512 56.888889C260.636444 56.888889 56.888889 260.636444 56.888889 512s203.747556 455.111111 455.111111 455.111111 455.111111-203.747556 455.111111-455.111111S763.363556 56.888889 512 56.888889zM170.666667 512c0-73.642667 23.665778-141.681778 63.459555-197.518222l475.392 475.392A339.114667 339.114667 0 0 1 512 853.333333c-188.216889 0-341.333333-153.116444-341.333333-341.333333z m619.207111 197.518222L314.481778 234.126222A339.114667 339.114667 0 0 1 512 170.666667c188.216889 0 341.333333 153.116444 341.333333 341.333333 0 73.642667-23.665778 141.681778-63.459555 197.518222z" p-id="144795" fill="#515151"></path></svg>