<?xml version="1.0" standalone="no"?><!DOCTYPE svg PUBLIC "-//W3C//DTD SVG 1.1//EN" "http://www.w3.org/Graphics/SVG/1.1/DTD/svg11.dtd"><svg t="1690818178364" class="icon" viewBox="0 0 1024 1024" version="1.1" xmlns="http://www.w3.org/2000/svg" p-id="1177" xmlns:xlink="http://www.w3.org/1999/xlink" width="16" height="16"><path d="M426.666667 853.333333m-85.333334 0a85.333333 85.333333 0 1 0 170.666667 0 85.333333 85.333333 0 1 0-170.666667 0Z" p-id="1178" fill="#515151"></path><path d="M682.666667 853.333333m-85.333334 0a85.333333 85.333333 0 1 0 170.666667 0 85.333333 85.333333 0 1 0-170.666667 0Z" p-id="1179" fill="#515151"></path><path d="M921.6 332.8c-17.066667-21.333333-42.666667-34.133333-68.266667-34.133333H366.933333L341.333333 153.6C332.8 115.2 298.666667 85.333333 256 85.333333H170.666667c-46.933333 0-85.333333 38.4-85.333334 85.333334s38.4 85.333333 85.333334 85.333333h12.8L256 614.4c8.533333 42.666667 42.666667 68.266667 85.333333 68.266667h426.666667c38.4 0 68.266667-25.6 81.066667-59.733334l85.333333-213.333333c8.533333-25.6 4.266667-51.2-12.8-76.8z" p-id="1180" fill="#515151"></path></svg>