<?xml version="1.0" standalone="no"?><!DOCTYPE svg PUBLIC "-//W3C//DTD SVG 1.1//EN" "http://www.w3.org/Graphics/SVG/1.1/DTD/svg11.dtd"><svg t="1685209668236" class="icon" viewBox="0 0 1024 1024" version="1.1" xmlns="http://www.w3.org/2000/svg" p-id="20775" xmlns:xlink="http://www.w3.org/1999/xlink" width="200" height="200"><path d="M725.333333 768a85.333333 85.333333 0 0 1 85.333334 85.333333 85.333333 85.333333 0 0 1-85.333334 85.333334 85.333333 85.333333 0 0 1-85.333333-85.333334c0-47.36 37.973333-85.333333 85.333333-85.333333M42.666667 85.333333h139.52l40.106666 85.333334H853.333333a42.666667 42.666667 0 0 1 42.666667 42.666666c0 7.253333-2.133333 14.506667-5.12 21.333334l-152.746667 276.053333c-14.506667 26.026667-42.666667 43.946667-74.666666 43.946667H345.6l-38.4 69.546666-1.28 5.12a10.666667 10.666667 0 0 0 10.666667 10.666667H810.666667v85.333333H298.666667a85.333333 85.333333 0 0 1-85.333334-85.333333c0-14.933333 3.84-29.013333 10.24-40.96l58.026667-104.533333L128 170.666667H42.666667V85.333333m256 682.666667a85.333333 85.333333 0 0 1 85.333333 85.333333 85.333333 85.333333 0 0 1-85.333333 85.333334 85.333333 85.333333 0 0 1-85.333334-85.333334c0-47.36 37.973333-85.333333 85.333334-85.333333m384-298.666667l118.613333-213.333333H261.973333l100.693334 213.333333H682.666667z" fill="" p-id="20776"></path></svg>