<?xml version="1.0" standalone="no"?><!DOCTYPE svg PUBLIC "-//W3C//DTD SVG 1.1//EN" "http://www.w3.org/Graphics/SVG/1.1/DTD/svg11.dtd"><svg t="1690817571385" class="icon" viewBox="0 0 1024 1024" version="1.1" xmlns="http://www.w3.org/2000/svg" p-id="2439" xmlns:xlink="http://www.w3.org/1999/xlink" width="16" height="16"><path d="M344.832 202.176a349.824 349.824 0 0 1 66.304-27.52L448 64h128l36.864 110.72c23.232 6.848 45.44 16.128 66.304 27.456l104.32-52.224 90.56 90.496-52.224 104.384c11.328 20.928 20.608 43.072 27.52 66.304L960 448v128l-110.72 36.864a349.824 349.824 0 0 1-27.456 66.304l52.224 104.32-90.496 90.56-104.384-52.224a349.824 349.824 0 0 1-66.304 27.52L576 960H448l-36.864-110.72a349.824 349.824 0 0 1-66.304-27.456l-104.32 52.224-90.56-90.496 52.224-104.384a349.824 349.824 0 0 1-27.52-66.304L64 576V448l110.72-36.864c6.848-23.232 16.128-45.44 27.456-66.304l-52.224-104.32 90.496-90.56 104.384 52.224zM512 672a160 160 0 1 0 0-320 160 160 0 0 0 0 320z" fill="#515151" p-id="2440"></path></svg>