<?xml version="1.0" standalone="no"?><!DOCTYPE svg PUBLIC "-//W3C//DTD SVG 1.1//EN" "http://www.w3.org/Graphics/SVG/1.1/DTD/svg11.dtd"><svg t="1690857316788" class="icon" viewBox="0 0 1024 1024" version="1.1" xmlns="http://www.w3.org/2000/svg" p-id="3939" xmlns:xlink="http://www.w3.org/1999/xlink" width="16" height="16"><path d="M806.4 341.333333H217.6c-25.6 0-46.933333 21.333333-42.666667 46.933334l68.266667 558.933333c4.266667 42.666667 42.666667 72.533333 85.333333 72.533333h362.666667c42.666667 0 81.066667-29.866667 85.333333-72.533333l68.266667-558.933333c4.266667-25.6-12.8-46.933333-38.4-46.933334zM853.333333 85.333333h-213.333333c0-46.933333-38.4-85.333333-85.333333-85.333333h-85.333334C422.4 0 384 38.4 384 85.333333H170.666667c-46.933333 0-85.333333 38.4-85.333334 85.333334v42.666666c0 25.6 17.066667 42.666667 42.666667 42.666667h768c25.6 0 42.666667-17.066667 42.666667-42.666667V170.666667c0-46.933333-38.4-85.333333-85.333334-85.333334z" p-id="3940" fill="#515151"></path></svg>