<?xml version="1.0" standalone="no"?><!DOCTYPE svg PUBLIC "-//W3C//DTD SVG 1.1//EN" "http://www.w3.org/Graphics/SVG/1.1/DTD/svg11.dtd"><svg t="1690858317755" class="icon" viewBox="0 0 1024 1024" version="1.1" xmlns="http://www.w3.org/2000/svg" p-id="132063" xmlns:xlink="http://www.w3.org/1999/xlink" width="16" height="16"><path d="M638.596211 191.936191q30.628116 0 54.62014 13.272183t41.347956 32.66999 26.544367 41.858425 9.188435 39.81655l0 576.829511q0 29.607178-11.740778 53.088734t-30.628116 39.81655-42.368893 25.52343-46.963111 9.188435l-503.322034 0q-19.397807 0-42.368893-11.230309t-42.879362-29.607178-33.180459-42.368893-13.272183-48.494516l0-568.662014q0-21.439681 10.209372-44.410768t26.544367-42.368893 37.774676-32.159521 44.921236-12.761715l515.57328 0zM578.360917 830.021934q26.544367 0 45.431705-18.376869t18.887338-44.921236-18.887338-45.431705-45.431705-18.887338l-382.851446 0q-26.544367 0-45.431705 18.887338t-18.887338 45.431705 18.887338 44.921236 45.431705 18.376869l382.851446 0zM578.360917 574.787637q26.544367 0 45.431705-18.376869t18.887338-44.921236-18.887338-45.431705-45.431705-18.887338l-382.851446 0q-26.544367 0-45.431705 18.887338t-18.887338 45.431705 18.887338 44.921236 45.431705 18.376869l382.851446 0zM759.0668 0q43.900299 0 80.654038 26.033898t63.808574 64.319043 42.368893 82.695912 15.314058 81.164506l0 542.117647q0 21.439681-12.761715 39.306082t-31.138584 30.628116-39.81655 20.418744-39.81655 7.657029l-4.083749 0 0-609.499501q-8.167498-70.444666-43.900299-108.219342t-94.947159-49.004985l-498.217348 0q1.020937-2.041874 1.020937-7.14656 0-20.418744 12.251246-41.858425t32.159521-38.795613 44.410768-28.586241 49.004985-11.230309l423.688933 0z" p-id="132064" fill="#515151"></path></svg>