<?xml version="1.0" standalone="no"?><!DOCTYPE svg PUBLIC "-//W3C//DTD SVG 1.1//EN" "http://www.w3.org/Graphics/SVG/1.1/DTD/svg11.dtd"><svg t="1690857574063" class="icon" viewBox="0 0 1024 1024" version="1.1" xmlns="http://www.w3.org/2000/svg" p-id="5937" xmlns:xlink="http://www.w3.org/1999/xlink" width="16" height="16"><path d="M417.337 137.474c0-22.695-18.932-41.021-42.356-41.021-63.715 0-296.733 172.093-296.733 409.722s199.278 430.231 445.038 430.231 423.921-226.828 423.921-286.781c0-22.695-18.932-41.021-42.356-41.021-23.423 0-255.59 55.463-400.498-84.59-145.029-140.052-87.018-363.846-87.018-386.541M930.945 249.249c5.703-5.34 7.646-11.893 5.583-18.083s-7.767-10.316-15.534-11.408l-100.974-14.199c-2.427-0.364-6.675-3.277-7.767-5.461l-45.147-88.474c-3.519-6.796-9.345-10.801-16.020-10.801-6.796 0-12.622 3.884-16.020 10.801l-45.268 88.474c-1.092 2.185-5.219 5.098-7.767 5.461l-100.852 14.078c-7.767 1.092-13.471 5.34-15.534 11.408-2.063 6.19 0 12.743 5.583 18.083l73.060 68.813c1.821 1.699 3.398 6.432 2.913 8.738l-17.234 97.212c-1.092 5.947 0.242 11.408 3.641 15.292 3.155 3.519 7.524 5.461 12.5 5.461 3.277 0 6.554-0.85 9.83-2.548l90.294-45.875c0.85-0.364 2.67-0.85 4.854-0.85s4.005 0.364 4.733 0.85l90.294 45.875c3.277 1.699 6.554 2.548 9.83 2.548 4.976 0 9.345-1.942 12.5-5.461 3.398-3.884 4.733-9.345 3.641-15.292l-17.234-97.212c-0.364-2.427 1.214-7.161 2.913-8.738l73.182-68.691z" p-id="5938" fill="#515151"></path></svg>