<?xml version="1.0" standalone="no"?><!DOCTYPE svg PUBLIC "-//W3C//DTD SVG 1.1//EN" "http://www.w3.org/Graphics/SVG/1.1/DTD/svg11.dtd"><svg t="1690729475357" class="icon" viewBox="0 0 1024 1024" version="1.1" xmlns="http://www.w3.org/2000/svg" p-id="25452" xmlns:xlink="http://www.w3.org/1999/xlink" width="16" height="16"><path d="M511.788859 18.303158c135.962319 0 259.81072 54.535525 349.400799 144.483018a494.147107 494.147107 0 0 1 0 698.400938l-3.523263 2.696504c-88.399547 87.682175-210.702546 141.820856-345.874992 141.820856a494.482898 494.482898 0 0 1-349.362641-144.519904C72.875569 771.599579 18.303158 648.117495 18.303158 511.393287A490.920206 490.920206 0 0 1 162.426218 162.786176l3.12769-2.695233C254.350299 72.048811 377.407556 18.303158 511.788859 18.303158z m129.706938 285.875231L511.788859 434.316513 382.080649 304.178389a55.308862 55.308862 0 0 0-77.903532 0c-20.994574 21.821333-20.994574 56.473955 0 77.903532l129.70821 129.311366-129.70821 130.110141c-20.994574 21.821333-20.994574 56.473955 0 77.903532a55.243993 55.243993 0 0 0 77.903532 0L511.788859 589.333704l129.706938 130.066896a55.245265 55.245265 0 0 0 77.904803 0c21.065803-21.425761 21.065803-56.082199 0-77.903531l-130.068168-130.103782 130.068168-129.311366c21.065803-21.427033 21.065803-56.873343 0-77.903532a55.310134 55.310134 0 0 0-77.904803 0z m141.787785-64.24294a382.384641 382.384641 0 0 0-271.494723-112.200012c-105.117873 0-199.774072 42.492835-269.121291 109.863466l-2.732119 2.732118c-68.952918 69.311604-112.566329 165.513206-112.566329 271.062266 0 106.735775 43.607051 202.578691 112.566329 271.890295 69.702089 69.347219 165.908778 112.955542 271.85341 112.955542 104.793529 0 199.846573-42.457221 269.158177-110.618996l2.336546-2.336546c70.138363-69.311604 112.94791-165.15452 112.94791-271.890295a379.990858 379.990858 0 0 0-112.94791-271.062266v-0.395572z" fill="#3B3F51" p-id="25453"></path></svg>