<?xml version="1.0" standalone="no"?><!DOCTYPE svg PUBLIC "-//W3C//DTD SVG 1.1//EN" "http://www.w3.org/Graphics/SVG/1.1/DTD/svg11.dtd"><svg t="1690857046971" class="icon" viewBox="0 0 1024 1024" version="1.1" xmlns="http://www.w3.org/2000/svg" p-id="2637" xmlns:xlink="http://www.w3.org/1999/xlink" width="16" height="16"><path d="M477.866667 708.266667c17.066667 21.333333 51.2 21.333333 68.266666 0l256-268.8c21.333333-21.333333 0-55.466667-34.133333-55.466667h-170.666667s8.533333-196.266667 0-298.666667c-4.266667-46.933333-38.4-85.333333-85.333333-85.333333s-81.066667 38.4-85.333333 85.333333c-8.533333 98.133333 0 298.666667 0 298.666667H256c-34.133333 0-55.466667 34.133333-34.133333 59.733333l256 264.533334zM810.666667 810.666667H213.333333c-46.933333 0-85.333333 38.4-85.333333 85.333333 0 25.6 17.066667 42.666667 42.666667 42.666667h682.666666c25.6 0 42.666667-17.066667 42.666667-42.666667 0-46.933333-38.4-85.333333-85.333333-85.333333z" p-id="2638" fill="#515151"></path></svg>