<?xml version="1.0" standalone="no"?><!DOCTYPE svg PUBLIC "-//W3C//DTD SVG 1.1//EN" "http://www.w3.org/Graphics/SVG/1.1/DTD/svg11.dtd"><svg t="1695263192805" class="icon" viewBox="0 0 1024 1024" version="1.1" xmlns="http://www.w3.org/2000/svg" p-id="5432" xmlns:xlink="http://www.w3.org/1999/xlink" width="200" height="200"><path d="M995.474286 446.902857a569.782857 569.782857 0 0 0-95.817143-134.034286 540.708571 540.708571 0 0 0-775.314286 0 569.782857 569.782857 0 0 0-95.817143 134.034286 143.36 143.36 0 0 0 0 130.194286 569.782857 569.782857 0 0 0 95.817143 134.034286 540.708571 540.708571 0 0 0 775.314286 0 569.782857 569.782857 0 0 0 95.817143-134.034286 143.36 143.36 0 0 0 0-130.194286zM512 676.571429a164.571429 164.571429 0 1 1 164.571429-164.571429 164.571429 164.571429 0 0 1-164.571429 164.571429z" fill="#515151" p-id="5433"></path></svg>