<?xml version="1.0" standalone="no"?><!DOCTYPE svg PUBLIC "-//W3C//DTD SVG 1.1//EN" "http://www.w3.org/Graphics/SVG/1.1/DTD/svg11.dtd"><svg t="1690858832987" class="icon" viewBox="0 0 1024 1024" version="1.1" xmlns="http://www.w3.org/2000/svg" p-id="3949" xmlns:xlink="http://www.w3.org/1999/xlink" width="16" height="16"><path d="M874.069784 149.952477c-199.951477-199.929216-524.143568-199.951477-724.117307 0-199.951477 199.951477-199.929216 524.143568 0 724.117307 199.951477 199.906954 524.143568 199.929216 724.117307 0 199.929216-199.973739 199.906954-524.143568 0-724.117307zM578.77293 734.624666a66.784061 66.784061 0 1 1-133.568121 0V467.488424a66.784061 66.784061 0 1 1 133.568121 0v267.136242z m-67.963912-381.292463c-38.467619 0-64.112698-27.247897-63.31129-60.884802-0.801409-35.261984 24.843671-61.686211 64.090437-61.686211 39.269028 0 64.112698 26.446488 64.936368 61.686211-0.022261 33.636905-25.645079 60.884802-65.715515 60.884802z" p-id="3950" fill="#515151"></path></svg>