<svg t="1695354324944" class="icon" viewBox="0 0 1024 1024" version="1.1" xmlns="http://www.w3.org/2000/svg" p-id="16170" width="16" height="16"><path d="M511.163 62.422c-242.734 0-439.51 196.775-439.51 439.51s196.776 439.51 439.51 439.51 439.51-196.776 439.51-439.51-196.776-439.51-439.51-439.51zM548.7 93.559s27.53-15.968 37.11-6.388c9.58 9.58 43.113-1.596 129.338 49.5 0 0-18.99 20.252-23.143 19.037 2.424 4.403 9.876 17.825 15.159 26.122 6.387 10.03 7.984 10.728 7.984 10.728l-6.388 9.58 6.388 1.596c-6.388-1.596-9.58 17.564-18.825 20.758-9.244 3.194 2.857 20.758-0.336 23.951-3.193 3.194 1.597 31.936 0 48.865-1.596 16.93-7.983 2.231-15.967 0-7.984-2.23-20.758-7.35-21.85-12.14-1.094-4.79-3.698-19.16-0.505-27.144 3.193-7.984-9.58-15.968-15.968-21.823-6.388-5.856-31.935 1.065-36.726 0-4.79-1.066-7.983-14.903-7.983-27.677s22.355 1.597 34.936 0c12.582-1.596 14.564-33.431 14.564-33.431l-0.723-27.062c-5.162-2.064-6.005-4.74 2.32-8.168 0 0-27.146-6.387-33.532 7.984-6.388 14.372-9.58 12.976-11.178 27.246-1.596 14.27-26.613 1.697-32.467 0-5.855-1.698-21.823-20.86-21.823-20.86 4.79-11.177 7.983-19.16 7.983-19.16l-8.368-19.16V93.559zM296.797 242.058c2.708-3.614 20.757-35.13 43.113-25.548 22.355 9.58 36.725-11.177 36.725-11.177s32.823-33.532 34.774-28.742l1.951 4.79c-1.951-4.79 27.146-12.774 30.338 3.194 3.194 15.967 22.356 24.001 22.356 24.001s-11.178 19.112-7.984 33.482c3.193 14.371 14.371 17.564 7.984 30.339-6.388 12.774-19.162 17.564-22.356 23.951-3.193 6.388-29.451-20.757-32.29-30.339-2.839-9.58-16.868-19.16-29.015-15.967-12.146 3.194-44.082 11.177-50.468 7.984-6.387-3.194-42.61-5.986-35.128-15.968zM724.73 711.507c-12.774 33.532-43.113 91.016-59.08 106.983-15.968 15.968-35.13 46.307-49.5 57.484-14.371 11.177-14.371 31.935-31.935 30.339-17.564-1.597-38.323-51.097-33.532-63.871 4.79-12.774-87.822-35.13-87.822-35.13s-39.92-4.79-47.903-81.434c-1.422-13.64-2.334-23.32-2.879-30.043-11.998-5.302-59.06-24.783-88.137-17.86-33.532 7.984-41.516-10.653-70.258-14.907l-49.5-45.77s-81.434-94.21-71.854-110.177c9.58-15.968 9.58-59.08 11.177-68.66 1.597-9.581-12.744-70.26-11.961-78.243 0.784-7.984-11.99-38.323-11.99-38.323s30.339-63.87 35.129-63.87 22.355 54.29 39.92 55.886c17.563 1.597 65.466-1.596 72.652-9.58 7.186-7.984 13.572-17.564 21.556-17.564 7.984 0 7.984-4.79 22.355 1.597 14.371 6.387 30.339 15.967 36.725 25.547 6.388 9.58-4.79 28.742 28.742 28.742s33.532-7.984 38.323 14.371c4.79 22.356 10.467 71.855-3.548 75.049-14.016 3.193-55.532 51.804-52.338 67.418 3.194 15.614 3.194 39.565-3.194 53.936-6.387 14.37-11.177 19.16-35.129 17.564-23.951-1.597-44.2-14.372-50.842 4.79-6.642 19.161-19.348 62.327 2.94 57.969 0 0 35.128-10.692 47.902 0 12.774 10.692 94.21 45.82 94.21 45.82s73.45-79.838 188.418-28.741l19.162 12.774 31.935-6.943s41.515-12.219 55.887-9.025l14.371 3.194v-6.388c-0.002 0.002 12.772 33.534-0.002 67.066z m186.822-182.031s-9.58-14.371-9.58-29.487-11.178-13.626-11.178-32.786c0-19.162-14.371-12.774-23.951-25.548s-14.372 4.79-22.355 6.387c-7.984 1.597-6.388 14.372-14.372 29.54-7.984 15.17-28.741 24.75-35.129 21.911-6.387-2.84-30.339-24.305-31.935-29.097-1.597-4.79-33.532-31.935-32.646-38.322 0.887-6.388-8.87-39.92-15.257-55.887-6.388-15.968 0-78.877 0-78.877-9.58-5.424 87.822-45.672 75.048-50.462-12.774-4.79-19.161-57.483-19.161-57.483l46.483 23.951c46.484 23.952 105.21 213.968 105.21 213.968v54.29l-11.177 47.902z" p-id="16171" fill="#515151"></path></svg>