<?xml version="1.0" standalone="no"?><!DOCTYPE svg PUBLIC "-//W3C//DTD SVG 1.1//EN" "http://www.w3.org/Graphics/SVG/1.1/DTD/svg11.dtd"><svg t="1690518485296" class="icon" viewBox="0 0 16 16" version="1.1" xmlns="http://www.w3.org/2000/svg" p-id="2343" xmlns:xlink="http://www.w3.org/1999/xlink" width="16" height="16"><path d="M512 51.2C257.92 51.2 51.2 257.92 51.2 512s206.72 460.8 460.8 460.8 460.8-206.72 460.8-460.8S766.08 51.2 512 51.2zM103.68 537.6h139.904c2.752 59.456 15.04 116.928 35.968 170.688H152.576A406.656 406.656 0 0 1 103.616 537.6zM537.6 265.408V125.376a483.84 483.84 0 0 1 124.672 140.032H537.6z m150.848 51.2a486.4 486.4 0 0 1 40 169.792H537.6V316.608h150.848zM486.4 124.8v140.608H360.96A484.352 484.352 0 0 1 486.4 124.8z m0 191.808V486.4H294.848a486.4 486.4 0 0 1 40-169.792H486.4zM243.648 486.4H103.744a406.656 406.656 0 0 1 48.384-169.792h127.232A538.432 538.432 0 0 0 243.648 486.4z m51.2 51.2H486.4v170.688H335.168a485.568 485.568 0 0 1-40.32-170.688zM486.4 759.488v139.84a485.312 485.312 0 0 1-124.992-139.84H486.4z m51.2 139.264v-139.264h124.288A483.264 483.264 0 0 1 537.6 898.752z m0-190.464V537.6h190.848a486.976 486.976 0 0 1-40.32 170.688H537.6zM779.648 537.6h140.672a406.912 406.912 0 0 1-48.96 170.688H743.68c20.928-53.76 33.216-111.232 35.968-170.688z m0-51.2a538.048 538.048 0 0 0-35.712-169.792h127.936c27.84 51.008 44.608 108.672 48.448 169.792h-140.672z m58.624-220.992h-117.504a533.376 533.376 0 0 0-117.696-152.448 409.92 409.92 0 0 1 235.2 152.448zM419.904 113.216a533.184 533.184 0 0 0-117.376 152.192H185.728a409.92 409.92 0 0 1 234.176-152.192zM186.368 759.488h116.544a533.696 533.696 0 0 0 116.864 151.296 409.664 409.664 0 0 1-233.344-151.296z m416.832 151.488a530.752 530.752 0 0 0 117.12-151.552h117.248a410.24 410.24 0 0 1-234.368 151.552z" p-id="2344"></path></svg>