<?xml version="1.0" standalone="no"?><!DOCTYPE svg PUBLIC "-//W3C//DTD SVG 1.1//EN" "http://www.w3.org/Graphics/SVG/1.1/DTD/svg11.dtd"><svg t="1690857436579" class="icon" viewBox="0 0 1024 1024" version="1.1" xmlns="http://www.w3.org/2000/svg" p-id="1243" xmlns:xlink="http://www.w3.org/1999/xlink" width="16" height="16"><path d="M512 768a256 256 0 1 1 0-512 256 256 0 0 1 0 512zM469.333333 42.666667h85.333334v128h-85.333334V42.666667z m0 810.666666h85.333334v128h-85.333334v-128zM149.973333 210.304l60.330667-60.330667L300.8 240.469333 240.469333 300.8 149.973333 210.346667zM723.2 783.530667l60.330667-60.330667 90.496 90.496-60.330667 60.330667-90.496-90.496z m90.496-633.6l60.330667 60.373333-90.496 90.496-60.330667-60.330667 90.496-90.496zM240.469333 723.2l60.330667 60.330667-90.496 90.496-60.330667-60.330667 90.496-90.496zM981.333333 469.333333v85.333334h-128v-85.333334h128zM170.666667 469.333333v85.333334H42.666667v-85.333334h128z" p-id="1244" fill="#515151"></path></svg>