<?xml version="1.0" standalone="no"?><!DOCTYPE svg PUBLIC "-//W3C//DTD SVG 1.1//EN" "http://www.w3.org/Graphics/SVG/1.1/DTD/svg11.dtd"><svg t="1690819375673" class="icon" viewBox="0 0 1024 1024" version="1.1" xmlns="http://www.w3.org/2000/svg" p-id="62755" xmlns:xlink="http://www.w3.org/1999/xlink" width="16" height="16"><path d="M512 85.333333C276.736 85.333333 85.333333 276.736 85.333333 512c0 107.562667 40.32 205.653333 106.24 280.832 52.906667 64.853333 139.349333 130.816 274.730667 143.274667a415.189333 415.189333 0 0 0 91.349333 0c135.424-12.458667 221.824-78.464 274.730667-143.274667A424.448 424.448 0 0 0 938.666667 512c0-235.264-191.402667-426.666667-426.666667-426.666667zM200.917333 372.224c6.570667 3.84 13.141333 7.765333 19.456 11.776 16.896 10.666667 33.749333 21.333333 54.869334 29.354667 21.077333 7.978667 46.421333 13.312 80.170666 13.312 33.792 0 59.136-5.333333 80.256-13.354667s38.016-18.645333 54.912-29.312 33.792-21.333333 54.912-29.354667c21.077333-7.978667 46.421333-13.312 80.213334-13.312s59.136 5.333333 80.213333 13.354667c21.12 7.978667 38.016 18.645333 54.912 29.312s33.792 21.333333 54.912 29.354667c7.594667 2.858667 15.957333 5.205333 24.789333 7.296 8.149333 29.098667 12.8 59.648 12.8 91.349333 0 35.968-5.674667 70.570667-16 103.125333-11.136 8.32-31.274667 20.224-67.285333 32.256-32.810667 10.922667-71.338667 19.541333-114.56 25.685334a1081.045333 1081.045333 0 0 1-287.018667 0c-43.221333-6.144-81.749333-14.762667-114.56-25.685334-36.010667-12.032-56.149333-23.936-67.285333-32.256a339.328 339.328 0 0 1 14.293333-242.901333z" p-id="62756" fill="#515151"></path><path d="M362.666667 533.333333m-64 0a64 64 0 1 0 128 0 64 64 0 1 0-128 0Z" p-id="62757" fill="#515151"></path><path d="M661.333333 533.333333m-64 0a64 64 0 1 0 128 0 64 64 0 1 0-128 0Z" p-id="62758" fill="#515151"></path></svg>