<?xml version="1.0" standalone="no"?><!DOCTYPE svg PUBLIC "-//W3C//DTD SVG 1.1//EN" "http://www.w3.org/Graphics/SVG/1.1/DTD/svg11.dtd"><svg t="1690858446631" class="icon" viewBox="0 0 1024 1024" version="1.1" xmlns="http://www.w3.org/2000/svg" p-id="1179" xmlns:xlink="http://www.w3.org/1999/xlink" width="16" height="16"><path d="M402.24 595.84a56.96 56.96 0 0 0-80.64-6.4L187.52 704a331.52 331.52 0 0 1 8-49.28 60.8 60.8 0 1 0-117.76-29.44 560 560 0 0 0 0 244.16 60.8 60.8 0 0 0 44.16 44.16 560 560 0 0 0 244.16 0 60.8 60.8 0 1 0-29.44-117.76 416 416 0 0 1-48.64 8.32l114.56-133.76a57.28 57.28 0 0 0-0.32-74.56z m187.52-200a56.96 56.96 0 0 0 80.64 6.4L804.48 288a331.52 331.52 0 0 1-8 49.28 60.8 60.8 0 1 0 117.76 29.44 560 560 0 0 0 0-244.16 60.8 60.8 0 0 0-44.16-44.16 560 560 0 0 0-244.16 0 60.8 60.8 0 1 0 29.44 117.76A416 416 0 0 1 704 187.84l-114.56 133.76a57.28 57.28 0 0 0 0.32 74.24z m-438.4 14.08a60.8 60.8 0 0 0 44.16-73.6A416 416 0 0 1 187.84 288l133.76 114.56a56.96 56.96 0 0 0 80.64-80.64L288 187.2a332.16 332.16 0 0 1 49.28 8 60.8 60.8 0 1 0 29.44-117.76 560 560 0 0 0-244.16 0 60.8 60.8 0 0 0-44.8 44.48 560 560 0 0 0 0 244.16 60.8 60.8 0 0 0 73.6 44.16z m762.88 215.68a60.8 60.8 0 1 0-117.76 29.44 416 416 0 0 1 7.68 48.96l-133.76-114.56a56.96 56.96 0 0 0-80.64 80.64l114.24 134.4a331.84 331.84 0 0 1-49.28-8 60.8 60.8 0 1 0-29.44 117.76 560 560 0 0 0 244.16 0 60.8 60.8 0 0 0 44.16-44.16 560 560 0 0 0 0.64-244.16z" fill="#515151" p-id="1180"></path></svg>