<?xml version="1.0" standalone="no"?><!DOCTYPE svg PUBLIC "-//W3C//DTD SVG 1.1//EN" "http://www.w3.org/Graphics/SVG/1.1/DTD/svg11.dtd"><svg t="1690858480740" class="icon" viewBox="0 0 1024 1024" version="1.1" xmlns="http://www.w3.org/2000/svg" p-id="1361" xmlns:xlink="http://www.w3.org/1999/xlink" width="16" height="16"><path d="M390.08 589.76a560 560 0 0 0-244.16 0 60.8 60.8 0 1 0 29.44 117.76A416 416 0 0 1 224 699.84l-114.24 134.08a56.96 56.96 0 0 0 80.64 80.64L324.48 800a331.84 331.84 0 0 1-8 49.28 60.8 60.8 0 1 0 117.76 29.44 560 560 0 0 0 0-244.16 60.8 60.8 0 0 0-44.16-44.8z m275.84-187.52a560 560 0 0 0 244.16 0 60.8 60.8 0 1 0-29.44-117.76 414.08 414.08 0 0 1-48.64 7.68l114.56-133.76a56.96 56.96 0 0 0-80.64-80.64L731.52 192a331.52 331.52 0 0 1 8-49.28 60.8 60.8 0 1 0-117.76-29.44 560 560 0 0 0 0 244.16 60.8 60.8 0 0 0 44.16 44.8zM360.64 69.76a60.8 60.8 0 0 0-44.16 73.6A416 416 0 0 1 324.16 192L190.08 77.76a56.96 56.96 0 0 0-80.32 80.32L224 292.48a331.84 331.84 0 0 1-49.28-8 60.8 60.8 0 1 0-29.44 117.76 560 560 0 0 0 244.16 0 60.8 60.8 0 0 0 44.16-44.16 560 560 0 0 0 0-244.16 60.8 60.8 0 0 0-72.96-44.16zM832 699.2a332.16 332.16 0 0 1 49.28 8 60.8 60.8 0 1 0 29.44-117.76 560 560 0 0 0-244.16 0 60.8 60.8 0 0 0-44.16 44.16 560 560 0 0 0 0 244.16 60.8 60.8 0 1 0 117.76-29.44 416 416 0 0 1-8.32-48.32l133.76 114.56a56.96 56.96 0 0 0 80.64-80.64z" fill="#515151" p-id="1362"></path></svg>