<?xml version="1.0" standalone="no"?><!DOCTYPE svg PUBLIC "-//W3C//DTD SVG 1.1//EN" "http://www.w3.org/Graphics/SVG/1.1/DTD/svg11.dtd"><svg t="1687796056363" class="icon" viewBox="0 0 1024 1024" version="1.1" xmlns="http://www.w3.org/2000/svg" p-id="1610" xmlns:xlink="http://www.w3.org/1999/xlink" width="200" height="200"><path d="M592.011636 974.615273a34.816 34.816 0 0 1-23.552-9.122909l-208.337454-190.417455-4.840727 0.139636H220.672A174.266182 174.266182 0 0 1 46.545455 601.134545V424.773818a174.359273 174.359273 0 0 1 174.126545-174.173091h134.609455c1.629091 0 3.258182 0.046545 4.840727 0.139637l208.337454-190.417455a34.955636 34.955636 0 0 1 58.461091 25.786182v853.597091a35.095273 35.095273 0 0 1-34.909091 34.909091zM368.733091 704.232727c9.448727 0 20.48 2.885818 26.810182 8.657455l161.559272 147.688727V165.329455L395.543273 313.018182a35.095273 35.095273 0 0 1-27.787637 8.890182c-7.214545-0.977455-9.821091-1.442909-12.474181-1.442909H220.672A104.448 104.448 0 0 0 116.363636 424.773818v176.360727a104.401455 104.401455 0 0 0 104.308364 104.261819h134.609455c2.699636 0 5.259636-0.465455 7.866181-0.837819a53.061818 53.061818 0 0 1 5.585455-0.325818z m345.367273-20.805818a181.76 181.76 0 0 0 119.528727-170.496 181.806545 181.806545 0 0 0-119.482182-170.449454 34.955636 34.955636 0 0 0-23.831273 65.62909 111.802182 111.802182 0 0 1 73.495273 104.820364 111.802182 111.802182 0 0 1-73.448727 104.820364 34.862545 34.862545 0 0 0 11.869091 67.723636 34.071273 34.071273 0 0 0 11.869091-2.048z m120.226909 99.048727a325.213091 325.213091 0 0 0-0.186182-539.136 34.909091 34.909091 0 0 0-39.098182 57.902546 255.301818 255.301818 0 0 1 0.093091 423.377454 34.909091 34.909091 0 1 0 39.191273 57.856z" fill="#231815" p-id="1611"></path></svg>