<?xml version="1.0" standalone="no"?><!DOCTYPE svg PUBLIC "-//W3C//DTD SVG 1.1//EN" "http://www.w3.org/Graphics/SVG/1.1/DTD/svg11.dtd"><svg t="1691114766869" class="icon" viewBox="0 0 1024 1024" version="1.1" xmlns="http://www.w3.org/2000/svg" p-id="4064" xmlns:xlink="http://www.w3.org/1999/xlink" width="16" height="16"><path d="M847 733.1l-77.5-154.8c-0.8-1.7-1.3-3.5-1.3-5.4l-0.2-171.4c-0.1-96.7-65.6-178.1-154.5-202.4v-0.1c0-55.6-45.1-100.7-100.7-100.7-55.5 0-100.5 44.9-100.7 100.4C322.2 222.6 255.9 304.6 256 402l0.2 171.4c0 1.9-0.4 3.7-1.3 5.4l-77.4 154.6c-22.6 45.2 10.3 98.5 60.9 98.4l547.9-0.4c50.5 0.1 83.4-53.1 60.7-98.3zM421.5 860.8c-10.1 0-15.6 11.7-9.3 19.6 23.4 29.2 59.4 47.9 99.7 47.9 40.4 0 76.4-18.7 99.9-48 6.3-7.9 0.8-19.6-9.3-19.5h-181z" p-id="4065" fill="#515151"></path></svg>