<?xml version="1.0" standalone="no"?><!DOCTYPE svg PUBLIC "-//W3C//DTD SVG 1.1//EN" "http://www.w3.org/Graphics/SVG/1.1/DTD/svg11.dtd"><svg t="1690857217672" class="icon" viewBox="0 0 1025 1024" version="1.1" xmlns="http://www.w3.org/2000/svg" p-id="85512" xmlns:xlink="http://www.w3.org/1999/xlink" width="16.015625" height="16"><path d="M320 839.68l-238.592 174.08c-8.704 6.656-19.456 9.728-29.696 9.728-12.8 0-26.112-5.12-35.84-14.848-17.92-17.92-20.48-46.08-5.12-66.56l212.992-288.256L56.32 487.424C39.936 471.04 36.864 445.44 48.128 425.472c8.192-12.8 76.8-112.64 229.376-75.264 2.56 0.512 5.12 0.512 8.192 1.024 6.144 0.512 13.312 1.024 20.992 2.56 32.256 5.12 89.6-20.48 139.264-62.976 47.616-40.448 78.336-87.552 78.336-120.32 0-7.68 0-15.872-0.512-23.552-1.024-30.72-3.072-77.824 31.744-112.64 41.472-41.472 107.52-45.056 153.088-7.68 1.024 0.512 1.536 1.536 2.56 2.56 24.576 24.064 276.48 275.968 279.04 278.528 21.504 21.504 33.792 50.688 33.792 81.408s-11.776 59.392-33.792 80.896c-34.816 34.816-82.432 33.28-113.664 31.744-7.168 0-15.36-0.512-23.04-0.512-30.72 0-67.584 21.504-103.936 60.928-50.688 55.296-81.92 126.464-79.36 158.72 1.024 10.24 3.072 28.16 3.584 30.72 36.864 149.504-62.976 217.6-74.752 225.28-20.48 12.288-46.592 9.216-62.976-7.168l-165.376-165.376-50.688 35.328z" p-id="85513" fill="#515151"></path></svg>