<?xml version="1.0" standalone="no"?><!DOCTYPE svg PUBLIC "-//W3C//DTD SVG 1.1//EN" "http://www.w3.org/Graphics/SVG/1.1/DTD/svg11.dtd"><svg t="1690858534850" class="icon" viewBox="0 0 1024 1024" version="1.1" xmlns="http://www.w3.org/2000/svg" p-id="4687" xmlns:xlink="http://www.w3.org/1999/xlink" width="16" height="16"><path d="M981.333333 230.4v-85.333333c0-38.4-46.933333-55.466667-72.533333-29.866667l-93.866667 93.866667C742.4 157.866667 652.8 128 554.666667 128 392.533333 128 247.466667 213.333333 174.933333 315.733333c-17.066667 29.866667 4.266667 68.266667 38.4 68.266667 12.8 0 25.6-8.533333 34.133334-21.333333C302.933333 290.133333 401.066667 256 512 256c76.8 0 149.333333 17.066667 204.8 51.2l-89.6 89.6c-25.6 25.6-8.533333 72.533333 29.866667 72.533333H938.666667c25.6 0 42.666667-17.066667 42.666666-42.666666V230.4zM840.533333 640c-17.066667 0-29.866667 8.533333-38.4 21.333333-51.2 72.533333-149.333333 106.666667-260.266666 106.666667-85.333333 0-166.4-21.333333-217.6-64l76.8-76.8c21.333333-25.6 4.266667-72.533333-34.133334-72.533333H85.333333c-25.6 0-42.666667 17.066667-42.666666 42.666666v281.6c0 38.4 46.933333 55.466667 72.533333 29.866667l102.4-102.4c72.533333 55.466667 170.666667 89.6 277.333333 89.6 166.4 0 307.2-85.333333 379.733334-192 21.333333-25.6 0-64-34.133334-64z" p-id="4688" fill="#515151"></path></svg>