<?xml version="1.0" standalone="no"?><!DOCTYPE svg PUBLIC "-//W3C//DTD SVG 1.1//EN" "http://www.w3.org/Graphics/SVG/1.1/DTD/svg11.dtd"><svg t="1692709697347" class="icon" viewBox="0 0 1028 1024" version="1.1" xmlns="http://www.w3.org/2000/svg" p-id="7425" xmlns:xlink="http://www.w3.org/1999/xlink" width="16.0625" height="16"><path d="M1018.319924 112.117535q4.093748 9.210934 6.652341 21.492179t2.558593 25.585928-5.117186 26.609365-16.374994 25.585928q-12.281245 12.281245-22.003898 21.492179t-16.886712 16.374994q-8.187497 8.187497-15.351557 14.32812l-191.382739-191.382739q12.281245-11.257808 29.167958-27.121083t28.144521-25.074209q14.32812-11.257808 29.679676-15.863275t30.191395-4.093748 28.656239 4.605467 24.050772 9.210934q21.492179 11.257808 47.589826 39.402329t40.425766 58.847634zM221.062416 611.554845q6.140623-6.140623 28.656239-29.167958t56.289041-56.80076l74.710909-74.710909 82.898406-82.898406 220.038979-220.038979 191.382739 192.406177-220.038979 220.038979-81.874969 82.898406q-40.937484 39.914047-73.687472 73.175753t-54.242167 54.753885-25.585928 24.562491q-10.234371 9.210934-23.539054 19.445305t-27.632802 16.374994q-14.32812 7.16406-41.960921 17.398431t-57.824197 19.957024-57.312478 16.886712-40.425766 9.210934q-27.632802 3.070311-36.843736-8.187497t-5.117186-37.867173q2.046874-14.32812 9.722653-41.449203t16.374994-56.289041 16.886712-53.730448 13.304682-33.773425q6.140623-14.32812 13.816401-26.097646t22.003898-26.097646z" p-id="7426" fill="#515151"></path></svg>