<?xml version="1.0" standalone="no"?><!DOCTYPE svg PUBLIC "-//W3C//DTD SVG 1.1//EN" "http://www.w3.org/Graphics/SVG/1.1/DTD/svg11.dtd"><svg t="1692709437659" class="icon" viewBox="0 0 1024 1024" version="1.1" xmlns="http://www.w3.org/2000/svg" p-id="12183" xmlns:xlink="http://www.w3.org/1999/xlink" width="16" height="16"><path d="M128 744.96v129.706667c0 11.946667 9.386667 21.333333 21.333333 21.333333h129.706667c5.546667 0 11.093333-2.133333 14.933333-6.4L759.893333 424.106667l-160-160L134.4 729.6c-4.266667 4.266667-6.4 9.386667-6.4 15.36zM883.626667 300.373333a42.496 42.496 0 0 0 0-60.16l-99.84-99.84a42.24 42.24 0 0 0-30.293334-12.373333c-11.093333 0-22.186667 4.693333-29.866666 12.373333l-78.08 78.08 160 160 78.08-78.08z" p-id="12184" fill="#515151"></path></svg>