<?xml version="1.0" standalone="no"?><!DOCTYPE svg PUBLIC "-//W3C//DTD SVG 1.1//EN" "http://www.w3.org/Graphics/SVG/1.1/DTD/svg11.dtd"><svg t="1690860270835" class="icon" viewBox="0 0 1024 1024" version="1.1" xmlns="http://www.w3.org/2000/svg" p-id="20118" xmlns:xlink="http://www.w3.org/1999/xlink" width="16" height="16"><path d="M471.893333 149.333333a42.666667 42.666667 0 0 0-73.258666-29.781333l-343.893334 352.981333a42.666667 42.666667 0 0 0-0.768 58.709334l343.893334 372.352a42.666667 42.666667 0 0 0 73.984-28.928v-190.677334c56.917333-5.248 116.821333-1.365333 179.882666 11.989334 65.834667 13.994667 150.528 76.032 253.909334 202.24a42.666667 42.666667 0 0 0 75.477333-31.36c-15.445333-152.32-73.984-281.301333-176.170667-384.853334-92.757333-93.994667-204.373333-146.432-333.098666-156.586666V149.333333z" fill="#515151" fill-opacity=".85" p-id="20119"></path></svg>