<?xml version="1.0" standalone="no"?><!DOCTYPE svg PUBLIC "-//W3C//DTD SVG 1.1//EN" "http://www.w3.org/Graphics/SVG/1.1/DTD/svg11.dtd"><svg t="1690857038209" class="icon" viewBox="0 0 1024 1024" version="1.1" xmlns="http://www.w3.org/2000/svg" p-id="2451" xmlns:xlink="http://www.w3.org/1999/xlink" width="16" height="16"><path d="M955.733333 836.266667l-204.8-204.8c38.4-59.733333 59.733333-128 59.733334-204.8 0-213.333333-170.666667-384-384-384s-384 170.666667-384 384 170.666667 384 384 384c76.8 0 145.066667-21.333333 204.8-59.733334l204.8 204.8c17.066667 17.066667 38.4 25.6 59.733333 25.6 46.933333 0 85.333333-38.4 85.333333-85.333333 0-25.6-8.533333-46.933333-25.6-59.733333zM213.333333 426.666667c0-119.466667 93.866667-213.333333 213.333334-213.333334s213.333333 93.866667 213.333333 213.333334-93.866667 213.333333-213.333333 213.333333-213.333333-93.866667-213.333334-213.333333z" p-id="2452" fill="#515151"></path></svg>