<?xml version="1.0" standalone="no"?><!DOCTYPE svg PUBLIC "-//W3C//DTD SVG 1.1//EN" "http://www.w3.org/Graphics/SVG/1.1/DTD/svg11.dtd"><svg t="1690859200674" class="icon" viewBox="0 0 1024 1024" version="1.1" xmlns="http://www.w3.org/2000/svg" p-id="15099" xmlns:xlink="http://www.w3.org/1999/xlink" width="16" height="16"><path d="M891.744 143.84a32 32 0 0 1 3.968 21.344l-108.48 660.8a32 32 0 0 1-43.392 24.512l-200.288-79.776-82.88 112.256A32 32 0 0 1 402.88 864v-128.448a64 64 0 0 1 14.368-40.448l280.32-344a9.6 9.6 0 0 0-13.792-13.28L337.92 641.568a64 64 0 0 1-66.496 11.136l-123.552-50.656a32 32 0 0 1-4.032-57.216L847.968 132.384a32 32 0 0 1 43.776 11.456z" fill="#ffffff" p-id="15100"></path></svg>