<?xml version="1.0" standalone="no"?><!DOCTYPE svg PUBLIC "-//W3C//DTD SVG 1.1//EN" "http://www.w3.org/Graphics/SVG/1.1/DTD/svg11.dtd"><svg t="1690818015716" class="icon" viewBox="0 0 1024 1024" version="1.1" xmlns="http://www.w3.org/2000/svg" p-id="36594" xmlns:xlink="http://www.w3.org/1999/xlink" width="16" height="16"><path d="M213.333333 469.333333h597.333334c93.866667 0 170.666667-76.8 170.666666-170.666666s-76.8-170.666667-170.666666-170.666667H213.333333C119.466667 128 42.666667 204.8 42.666667 298.666667s76.8 170.666667 170.666666 170.666666z m0-256c46.933333 0 85.333333 38.4 85.333334 85.333334s-38.4 85.333333-85.333334 85.333333-85.333333-38.4-85.333333-85.333333 38.4-85.333333 85.333333-85.333334zM810.666667 554.666667H213.333333c-93.866667 0-170.666667 76.8-170.666666 170.666666s76.8 170.666667 170.666666 170.666667h597.333334c93.866667 0 170.666667-76.8 170.666666-170.666667s-76.8-170.666667-170.666666-170.666666z m0 256c-46.933333 0-85.333333-38.4-85.333334-85.333334s38.4-85.333333 85.333334-85.333333 85.333333 38.4 85.333333 85.333333-38.4 85.333333-85.333333 85.333334z" p-id="36595" fill="#515151"></path></svg>