<?xml version="1.0" standalone="no"?><!DOCTYPE svg PUBLIC "-//W3C//DTD SVG 1.1//EN" "http://www.w3.org/Graphics/SVG/1.1/DTD/svg11.dtd"><svg t="1690860195348" class="icon" viewBox="0 0 1024 1024" version="1.1" xmlns="http://www.w3.org/2000/svg" p-id="13605" xmlns:xlink="http://www.w3.org/1999/xlink" width="16" height="16"><path d="M768 640c-45.216 0-86.774 15.638-119.58 41.79l-204.972-128.108a193.102 193.102 0 0 0 0-83.366l204.972-128.108C681.226 368.362 722.784 384 768 384c106.038 0 192-85.962 192-192S874.038 0 768 0s-192 85.962-192 192c0 14.316 1.58 28.26 4.552 41.682L375.58 361.79C342.774 335.638 301.216 320 256 320c-106.038 0-192 85.962-192 192s85.962 192 192 192c45.216 0 86.774-15.638 119.58-41.79l204.972 128.108A192.602 192.602 0 0 0 576 832c0 106.038 85.962 192 192 192s192-85.962 192-192-85.962-192-192-192z" fill="#515151" p-id="13606"></path></svg>