<?xml version="1.0" standalone="no"?><!DOCTYPE svg PUBLIC "-//W3C//DTD SVG 1.1//EN" "http://www.w3.org/Graphics/SVG/1.1/DTD/svg11.dtd"><svg t="1690857322372" class="icon" viewBox="0 0 1024 1024" version="1.1" xmlns="http://www.w3.org/2000/svg" p-id="4125" xmlns:xlink="http://www.w3.org/1999/xlink" width="16" height="16"><path d="M768.114773 384c0-140.8-115.2-256-256-256S256.114773 243.2 256.114773 384c-145.066667 0-260.266667 119.466667-256 264.533333 4.266667 140.8 128 247.466667 268.8 247.466667H384.114773c25.6 0 42.666667-17.066667 42.666667-42.666667v-128H375.58144c-38.4 0-55.466667-46.933333-29.866667-72.533333l136.533334-136.533333c17.066667-17.066667 42.666667-17.066667 59.733333 0l136.533333 136.533333c25.6 25.6 8.533333 72.533333-29.866666 72.533333H597.448107v128c0 25.6 17.066667 42.666667 42.666666 42.666667h115.2c140.8 0 264.533333-106.666667 264.533334-247.466667 8.533333-145.066667-106.666667-264.533333-251.733334-264.533333z" p-id="4126" fill="#515151"></path></svg>